Coordinates
version=1
nRows=21
nColumns=34
inDegrees=no

Units are S.I. units (second, meters, Newtons, ...)
If the header above contains a line with 'inDegrees', this indicates whether rotational values are in degrees (yes) or radians (no).

endheader
time	pelvis_tilt	pelvis_list	pelvis_rotation	pelvis_tx	pelvis_ty	pelvis_tz	hip_flexion_r	hip_adduction_r	hip_rotation_r	knee_angle_r	ankle_angle_r	subtalar_angle_r	mtp_angle_r	hip_flexion_l	hip_adduction_l	hip_rotation_l	knee_angle_l	ankle_angle_l	subtalar_angle_l	mtp_angle_l	lumbar_extension	lumbar_bending	lumbar_rotation	arm_flex_r	arm_add_r	arm_rot_r	elbow_flex_r	pro_sup_r	arm_flex_l	arm_add_l	arm_rot_l	elbow_flex_l	pro_sup_l
0	-0.0972249	-0.0342141	-0.070793	-0.189303	1.04802	-0.637566	0.159752	-0.123687	-0.186053	0.0977868	0.159668	0.199764	-0.117665	0.164365	-0.215639	-0.342794	0.163381	0.260324	0.404118	-0.117665	-0.0317553	0.0475315	-0.0277036	-0.16024	-0.167052	-0.125888	0.772428	1.54506	-0.1887	-0.117544	-0.0890054	0.741316	1.43776
0.01	-0.0976398	-0.0339848	-0.0707512	-0.189358	1.04796	-0.637553	0.160011	-0.12394	-0.185523	0.0977437	0.159398	0.198893	-0.117665	0.164959	-0.215866	-0.342865	0.164059	0.260516	0.40453	-0.117665	-0.0316404	0.047314	-0.0281069	-0.159937	-0.166936	-0.12551	0.772199	1.54491	-0.18886	-0.117541	-0.0892925	0.742742	1.43462
0.02	-0.0979841	-0.033803	-0.0707621	-0.189422	1.0479	-0.637537	0.160275	-0.124146	-0.185035	0.0978391	0.159201	0.198072	-0.117665	0.165549	-0.216165	-0.342887	0.164913	0.260784	0.404678	-0.117665	-0.0316777	0.0471621	-0.0284327	-0.159668	-0.166804	-0.125247	0.772176	1.54475	-0.189094	-0.117548	-0.0897528	0.744411	1.43167
0.03	-0.0982604	-0.0336704	-0.0708253	-0.189495	1.04784	-0.637518	0.160551	-0.124306	-0.184591	0.0980789	0.159079	0.197301	-0.117665	0.166134	-0.216535	-0.34285	0.165937	0.261123	0.404552	-0.117665	-0.0318655	0.0470779	-0.028683	-0.159432	-0.166658	-0.125096	0.772362	1.54456	-0.189403	-0.117565	-0.0903848	0.746321	1.42892
0.04	-0.0984743	-0.0335937	-0.0709404	-0.189579	1.04778	-0.637497	0.160853	-0.124412	-0.184194	0.0984791	0.159037	0.19658	-0.117665	0.166713	-0.216981	-0.342734	0.167111	0.261519	0.404144	-0.117665	-0.0322008	0.0470683	-0.0288608	-0.159231	-0.166503	-0.125044	0.772771	1.54436	-0.189787	-0.117592	-0.0911819	0.74847	1.4264
0.05	-0.0986341	-0.033585	-0.0711078	-0.189675	1.04773	-0.637472	0.161204	-0.124453	-0.183846	0.0990663	0.159081	0.195907	-0.117665	0.167289	-0.217511	-0.342516	0.168416	0.261959	0.403447	-0.117665	-0.0326808	0.0471442	-0.0289683	-0.159069	-0.166352	-0.125072	0.773433	1.54414	-0.190249	-0.117631	-0.0921293	0.750859	1.4242
0.06	-0.0987499	-0.0336575	-0.0713294	-0.189783	1.04768	-0.637444	0.161635	-0.124417	-0.183543	0.0998753	0.159223	0.195277	-0.117665	0.167869	-0.218143	-0.342187	0.169838	0.26243	0.402476	-0.117665	-0.0333046	0.0473151	-0.0290061	-0.158956	-0.166222	-0.125149	0.774394	1.54393	-0.190791	-0.117684	-0.0932038	0.753488	1.42241
0.07	-0.098833	-0.0338193	-0.0716076	-0.189909	1.04763	-0.63741	0.162182	-0.124297	-0.183272	0.100946	0.159474	0.194677	-0.117665	0.168471	-0.21889	-0.341757	0.171381	0.262926	0.401276	-0.117665	-0.0340739	0.0475829	-0.0289745	-0.158905	-0.16613	-0.125234	0.775714	1.54376	-0.191416	-0.117758	-0.0943768	0.756369	1.42115
0.08	-0.0988953	-0.0340685	-0.0719453	-0.190055	1.04757	-0.637369	0.162883	-0.124094	-0.18302	0.102318	0.159849	0.19409	-0.117664	0.169122	-0.219763	-0.341262	0.173065	0.263453	0.399918	-0.117665	-0.0349926	0.0479363	-0.0288737	-0.158931	-0.166096	-0.125281	0.777459	1.54372	-0.19213	-0.117862	-0.0956173	0.759523	1.42056
0.09	-0.0989512	-0.0343923	-0.0723426	-0.190228	1.04752	-0.637319	0.163777	-0.123822	-0.182762	0.104022	0.160353	0.19348	-0.117664	0.169866	-0.220768	-0.340755	0.174935	0.264025	0.398489	-0.117665	-0.0360639	0.0483509	-0.0287051	-0.159045	-0.166135	-0.125249	0.779693	1.54387	-0.192938	-0.118014	-0.0968953	0.76298	1.42074
0.1	-0.0990183	-0.0347713	-0.072795	-0.190431	1.04745	-0.637259	0.164896	-0.123495	-0.182464	0.106065	0.160981	0.19279	-0.117664	0.170761	-0.221906	-0.340285	0.177055	0.264663	0.397068	-0.117665	-0.0372876	0.0487945	-0.0284695	-0.159259	-0.166252	-0.125111	0.782473	1.54433	-0.19384	-0.118235	-0.0981837	0.766778	1.42175
0.11	-0.0991191	-0.0351868	-0.0732915	-0.190672	1.04738	-0.637185	0.16626	-0.123123	-0.18207	0.108418	0.161701	0.191929	-0.117664	0.171879	-0.223176	-0.339873	0.179492	0.265388	0.395689	-0.117665	-0.0386565	0.0492368	-0.028164	-0.159579	-0.166444	-0.124869	0.785837	1.54516	-0.194831	-0.118549	-0.0994603	0.770956	1.42357
0.12	-0.0992827	-0.0356285	-0.0738147	-0.190953	1.0473	-0.637099	0.167871	-0.122699	-0.181506	0.111015	0.162456	0.190776	-0.117664	0.173297	-0.224578	-0.339489	0.182313	0.266214	0.394324	-0.117665	-0.0401531	0.0496599	-0.027777	-0.160016	-0.166694	-0.124563	0.78981	1.54634	-0.195895	-0.118979	-0.100708	0.775553	1.42603
0.13	-0.0995497	-0.0360985	-0.0743434	-0.19128	1.04721	-0.637	0.16973	-0.1222	-0.180688	0.113757	0.163167	0.189195	-0.117664	0.175104	-0.226118	-0.339049	0.185568	0.267146	0.392874	-0.117665	-0.0417419	0.0500663	-0.0272847	-0.160577	-0.166978	-0.124274	0.794389	1.54781	-0.197002	-0.11954	-0.101916	0.780593	1.42889
0.14	-0.0999832	-0.0366141	-0.0748554	-0.191653	1.04709	-0.636892	0.171856	-0.121589	-0.179549	0.116549	0.163747	0.187058	-0.117664	0.17741	-0.22781	-0.338438	0.189303	0.268178	0.391202	-0.117665	-0.0433583	0.0504861	-0.0266527	-0.161273	-0.167267	-0.124119	0.799547	1.54948	-0.198112	-0.120228	-0.103087	0.786059	1.43198
0.15	-0.100677	-0.0372053	-0.0753318	-0.192077	1.04695	-0.63678	0.174318	-0.120825	-0.178061	0.119325	0.164123	0.184291	-0.117664	0.180355	-0.229677	-0.337528	0.193561	0.269303	0.389161	-0.117665	-0.0448985	0.0509773	-0.0258432	-0.162119	-0.167543	-0.124224	0.805232	1.55133	-0.199173	-0.121018	-0.104238	0.791882	1.43521
0.16	-0.101755	-0.0379057	-0.0757605	-0.192554	1.04677	-0.636672	0.17725	-0.119883	-0.176278	0.12209	0.164256	0.180922	-0.117664	0.184107	-0.231744	-0.336195	0.198377	0.270501	0.386609	-0.117665	-0.0462219	0.0516187	-0.0248282	-0.163132	-0.167811	-0.124686	0.811388	1.55329	-0.200136	-0.121862	-0.105381	0.797953	1.43851
0.17	-0.103371	-0.0387417	-0.0761369	-0.193086	1.04654	-0.636579	0.180865	-0.118766	-0.174355	0.124944	0.164166	0.177121	-0.117664	0.188855	-0.23402	-0.334317	0.203775	0.271741	0.383404	-0.117665	-0.0471498	0.0524957	-0.0236052	-0.16432	-0.168103	-0.125543	0.817954	1.55532	-0.20097	-0.122696	-0.106518	0.804139	1.44183
0.18	-0.105707	-0.0397179	-0.0764633	-0.193679	1.04624	-0.636515	0.18546	-0.117527	-0.17256	0.128095	0.163938	0.173203	-0.117664	0.194809	-0.236488	-0.331779	0.209757	0.272972	0.379406	-0.117665	-0.047472	0.0536822	-0.0222152	-0.165679	-0.168476	-0.126755	0.824864	1.55733	-0.201674	-0.123449	-0.107643	0.810303	1.44506
0.19	-0.108954	-0.0408053	-0.0767443	-0.194339	1.04585	-0.636492	0.191399	-0.116278	-0.17125	0.131862	0.16373	0.169606	-0.117664	0.202176	-0.239085	-0.328469	0.216305	0.274131	0.374474	-0.117664	-0.0469659	0.0552201	-0.0207545	-0.167176	-0.169001	-0.128205	0.832047	1.55926	-0.202295	-0.124051	-0.108764	0.816335	1.44811
0.2	-0.11329	-0.0419363	-0.0769817	-0.195073	1.04536	-0.636524	0.199076	-0.115186	-0.170843	0.136653	0.163764	0.166841	-0.117664	0.211143	-0.241706	-0.32429	0.223388	0.275147	0.368477	-0.117664	-0.0454289	0.0571033	-0.0193791	-0.168744	-0.16975	-0.129709	0.839427	1.56105	-0.202922	-0.124438	-0.10994	0.822183	1.45087
